<?xml version="1.0" encoding="utf-8"?>
<!-- Generator: Adobe Illustrator 19.0.0, SVG Export Plug-In . SVG Version: 6.00 Build 0)  -->
<svg version="1.1" id="a1" xmlns="http://www.w3.org/2000/svg" xmlns:xlink="http://www.w3.org/1999/xlink" x="0px" y="0px"
	 viewBox="0 0 200 200" style="enable-background:new 0 0 200 200;" xml:space="preserve">
<style type="text/css">
	.st0{fill:#FFFFFF;stroke:#000000;stroke-miterlimit:10;}
	.st1{fill:none;}
	.st2{fill:#FFFFFF;}
	.st3{font-family:'TimesNewRomanPSMT';}
	.st4{font-size:60px;}
</style>
<path id="XMLID_3_" class="st0" d="M38.8,74H24c-6.6,0-12-5.4-12-12V47.2c0-6.6,5.4-12,12-12h14.8c6.6,0,12,5.4,12,12V62
	C50.8,68.6,45.4,74,38.8,74z"/>
<path id="XMLID_1_" class="st0" d="M77.7,74H62.9c-6.6,0-12-5.4-12-12V47.2c0-6.6,5.4-12,12-12h14.8c6.6,0,12,5.4,12,12V62
	C89.7,68.6,84.3,74,77.7,74z"/>
<path id="XMLID_4_" class="st0" d="M38.8,112.8H24c-6.6,0-12-5.4-12-12V86c0-6.6,5.4-12,12-12h14.8c6.6,0,12,5.4,12,12v14.8
	C50.8,107.4,45.4,112.8,38.8,112.8z"/>
<path id="XMLID_2_" class="st0" d="M77.7,112.8H62.9c-6.6,0-12-5.4-12-12V86c0-6.6,5.4-12,12-12h14.8c6.6,0,12,5.4,12,12v14.8
	C89.7,107.4,84.3,112.8,77.7,112.8z"/>
<path id="XMLID_12_" class="st0" d="M38.8,151.6H24c-6.6,0-12-5.4-12-12v-14.8c0-6.6,5.4-12,12-12h14.8c6.6,0,12,5.4,12,12v14.8
	C50.8,146.2,45.4,151.6,38.8,151.6z"/>
<path id="XMLID_11_" class="st0" d="M77.6,151.6H62.8c-6.6,0-12-5.4-12-12v-14.8c0-6.6,5.4-12,12-12h14.8c6.6,0,12,5.4,12,12v14.8
	C89.6,146.2,84.2,151.6,77.6,151.6z"/>
<rect id="XMLID_14_" x="94.7" y="66.1" class="st1" width="60.8" height="55.2"/>
<text id="XMLID_13_" transform="matrix(1 0 0 1 94.6667 107.7832)" class="st2 st3 st4">&lt;</text>
<rect id="XMLID_16_" x="98.5" y="56.3" class="st1" width="42.7" height="66"/>
<text id="XMLID_15_" transform="matrix(1 0 0 1 98.4997 98.0325)" class="st2 st3 st4">_</text>
<rect id="XMLID_18_" x="128.5" y="67.4" class="st1" width="71.5" height="63.3"/>
<text id="XMLID_17_" transform="matrix(1 0 0 1 128.5 109.1156)" class="st2 st3 st4">12</text>
</svg>
