<?xml version="1.0" encoding="utf-8"?>
<!-- Generator: Adobe Illustrator 19.0.0, SVG Export Plug-In . SVG Version: 6.00 Build 0)  -->
<svg version="1.1" xmlns="http://www.w3.org/2000/svg" xmlns:xlink="http://www.w3.org/1999/xlink" x="0px" y="0px"
	 viewBox="0 0 200 200" style="enable-background:new 0 0 200 200;" xml:space="preserve">
<style type="text/css">
	.st0{fill:#FFFFFF;stroke:#000000;stroke-miterlimit:10;}
	.st1{fill:none;}
	.st2{font-family:'TimesNewRomanPSMT';}
	.st3{font-size:59.0271px;}
</style>
<g id="a1">
	<path id="XMLID_17_" class="st0" d="M56.7,126.3H18.6c-6.6,0-12-5.4-12-12V76.1c0-6.6,5.4-12,12-12h38.2c6.6,0,12,5.4,12,12v38.2
		C68.7,120.9,63.3,126.3,56.7,126.3z"/>
	<rect id="XMLID_11_" x="3.3" y="71.7" class="st1" width="63.4" height="55.8"/>
	<text id="XMLID_12_" transform="matrix(1 0 0 1 13.6968 112.7432)" class="st2 st3">A</text>
	<path id="XMLID_2_" class="st0" d="M119,126.1H80.8c-6.6,0-12-5.4-12-12V75.9c0-6.6,5.4-12,12-12H119c6.6,0,12,5.4,12,12v38.2
		C131,120.7,125.6,126.1,119,126.1z"/>
	<rect id="XMLID_16_" x="65.6" y="71.5" class="st1" width="63.4" height="55.8"/>
	<text id="XMLID_1_" transform="matrix(1 0 0 1 75.9482 112.5054)" class="st2 st3">A</text>
	<path id="XMLID_6_" class="st0" d="M181.4,126.5h-38.2c-6.6,0-12-5.4-12-12V76.3c0-6.6,5.4-12,12-12h38.2c6.6,0,12,5.4,12,12v38.2
		C193.4,121.1,188,126.5,181.4,126.5z"/>
	<rect id="XMLID_4_" x="128.1" y="71.9" class="st1" width="63.4" height="55.8"/>
	<text id="XMLID_3_" transform="matrix(1 0 0 1 138.4183 112.9083)" class="st2 st3">A</text>
</g>
<g id="Layer_2">
</g>
</svg>
