<?xml version="1.0" encoding="utf-8"?>
<!-- Generator: Adobe Illustrator 19.0.0, SVG Export Plug-In . SVG Version: 6.00 Build 0)  -->
<svg version="1.1" xmlns="http://www.w3.org/2000/svg" xmlns:xlink="http://www.w3.org/1999/xlink" x="0px" y="0px"
	 viewBox="0 0 200 200" style="enable-background:new 0 0 200 200;" xml:space="preserve">
<style type="text/css">
	.st0{fill:#FFFFFF;stroke:#000000;stroke-miterlimit:10;}
	.st1{fill:none;}
	.st2{font-family:'TimesNewRomanPSMT';}
	.st3{font-size:42.8882px;}
</style>
<g id="a1">
	<path id="XMLID_17_" class="st0" d="M37.7,85.3H16.5c-6.6,0-12-5.4-12-12V52.2c0-6.6,5.4-12,12-12h21.2c6.6,0,12,5.4,12,12v21.2
		C49.7,79.9,44.3,85.3,37.7,85.3z"/>
	<rect id="XMLID_11_" x="2.2" y="45.7" class="st1" width="46" height="40.5"/>
	<text id="XMLID_12_" transform="matrix(1 0 0 1 9.7374 75.4908)" class="st2 st3">A</text>
	<path id="XMLID_2_" class="st0" d="M82.9,85.2H61.8c-6.6,0-12-5.4-12-12V52c0-6.6,5.4-12,12-12h21.2c6.6,0,12,5.4,12,12v21.2
		C94.9,79.8,89.5,85.2,82.9,85.2z"/>
	<rect id="XMLID_16_" x="47.4" y="45.5" class="st1" width="46" height="40.5"/>
	<text id="XMLID_1_" transform="matrix(1 0 0 1 54.9684 75.3184)" class="st2 st3">A</text>
	<path id="XMLID_6_" class="st0" d="M128.3,85.5h-21.2c-6.6,0-12-5.4-12-12V52.3c0-6.6,5.4-12,12-12h21.2c6.6,0,12,5.4,12,12v21.2
		C140.3,80.1,134.9,85.5,128.3,85.5z"/>
	<rect id="XMLID_4_" x="92.8" y="45.8" class="st1" width="46" height="40.5"/>
	<text id="XMLID_3_" transform="matrix(1 0 0 1 100.358 75.6109)" class="st2 st3">A</text>
	<path id="XMLID_9_" class="st0" d="M173.7,85h-21.2c-6.6,0-12-5.4-12-12V51.9c0-6.6,5.4-12,12-12h21.2c6.6,0,12,5.4,12,12V73
		C185.7,79.6,180.3,85,173.7,85z"/>
	<rect id="XMLID_8_" x="138.2" y="45.4" class="st1" width="46" height="40.5"/>
	<text id="XMLID_7_" transform="matrix(1 0 0 1 145.733 75.1771)" class="st2 st3">A</text>
	<path id="XMLID_18_" class="st0" d="M85.3,141.8H64.1c-6.6,0-12-5.4-12-12v-21.2c0-6.6,5.4-12,12-12h21.2c6.6,0,12,5.4,12,12v21.2
		C97.3,136.4,91.9,141.8,85.3,141.8z"/>
	<rect id="XMLID_23_" x="49.8" y="102.2" class="st1" width="46" height="40.5"/>
	<text id="XMLID_15_" transform="matrix(1 0 0 1 58.4946 131.9908)" class="st2 st3">B</text>
	<path id="XMLID_14_" class="st0" d="M130.5,141.7h-21.2c-6.6,0-12-5.4-12-12v-21.2c0-6.6,5.4-12,12-12h21.2c6.6,0,12,5.4,12,12
		v21.2C142.5,136.3,137.1,141.7,130.5,141.7z"/>
	<rect id="XMLID_19_" x="95" y="102" class="st1" width="46" height="40.5"/>
	<text id="XMLID_13_" transform="matrix(1 0 0 1 103.7256 131.8184)" class="st2 st3">B</text>
</g>
<g id="Layer_2">
</g>
</svg>
