<?xml version="1.0" encoding="utf-8"?>
<!-- Generator: Adobe Illustrator 19.0.0, SVG Export Plug-In . SVG Version: 6.00 Build 0)  -->
<svg version="1.1" id="a1" xmlns="http://www.w3.org/2000/svg" xmlns:xlink="http://www.w3.org/1999/xlink" x="0px" y="0px"
	 viewBox="0 0 200 200" style="enable-background:new 0 0 200 200;" xml:space="preserve">
<style type="text/css">
	.st0{fill:#FFFFFF;stroke:#000000;stroke-miterlimit:10;}
	.st1{fill:none;}
	.st2{font-family:'TimesNewRomanPSMT';}
	.st3{font-size:36px;}
</style>
<path id="XMLID_20_" class="st0" d="M29.7,112.5H14.9c-6.6,0-12-5.4-12-12V85.7c0-6.6,5.4-12,12-12h14.8c6.6,0,12,5.4,12,12v14.8
	C41.7,107.1,36.3,112.5,29.7,112.5z"/>
<path id="XMLID_1_" class="st0" d="M68.5,112H53.7c-6.6,0-12-5.4-12-12V85.2c0-6.6,5.4-12,12-12h14.8c6.6,0,12,5.4,12,12V100
	C80.5,106.6,75.1,112,68.5,112z"/>
<path id="XMLID_2_" class="st0" d="M107.8,112H93c-6.6,0-12-5.4-12-12V85.2c0-6.6,5.4-12,12-12h14.8c6.6,0,12,5.4,12,12V100
	C119.8,106.6,114.4,112,107.8,112z"/>
<path id="XMLID_3_" class="st0" d="M146.2,112h-14.8c-6.6,0-12-5.4-12-12V85.2c0-6.6,5.4-12,12-12h14.8c6.6,0,12,5.4,12,12V100
	C158.2,106.6,152.8,112,146.2,112z"/>
<path id="XMLID_4_" class="st0" d="M185,112h-14.8c-6.6,0-12-5.4-12-12V85.2c0-6.6,5.4-12,12-12H185c6.6,0,12,5.4,12,12V100
	C197,106.6,191.6,112,185,112z"/>
<rect id="XMLID_16_" x="1.6" y="79" class="st1" width="38.8" height="34"/>
<text id="XMLID_9_" transform="matrix(1 0 0 1 8.0264 104.0434)" class="st2 st3">A</text>
<rect id="XMLID_13_" x="42.4" y="79" class="st1" width="38.8" height="34"/>
<text id="XMLID_10_" transform="matrix(1 0 0 1 49.8211 104.0434)" class="st2 st3">B</text>
<rect id="XMLID_15_" x="79.6" y="80.1" class="st1" width="38.8" height="34"/>
<text id="XMLID_14_" transform="matrix(1 0 0 1 86.9938 105.1316)" class="st2 st3">C</text>
<rect id="XMLID_18_" x="120.8" y="79.5" class="st1" width="38.8" height="34"/>
<text id="XMLID_17_" transform="matrix(1 0 0 1 127.203 104.5434)" class="st2 st3">D</text>
<rect id="XMLID_12_" x="158.2" y="78.1" class="st1" width="38.8" height="34"/>
<text id="XMLID_11_" transform="matrix(1 0 0 1 166.6038 103.1316)" class="st2 st3">E</text>
</svg>
