<?xml version="1.0" encoding="utf-8"?>
<!-- Generator: Adobe Illustrator 19.0.0, SVG Export Plug-In . SVG Version: 6.00 Build 0)  -->
<svg version="1.1" id="a1" xmlns="http://www.w3.org/2000/svg" xmlns:xlink="http://www.w3.org/1999/xlink" x="0px" y="0px"
	 viewBox="0 0 200 200" style="enable-background:new 0 0 200 200;" xml:space="preserve">
<style type="text/css">
	.st0{fill:#FFFFFF;stroke:#000000;stroke-miterlimit:10;}
	.st1{fill:none;}
	.st2{fill:#FFFFFF;}
	.st3{font-family:'TimesNewRomanPSMT';}
	.st4{font-size:48px;}
</style>
<path id="XMLID_3_" class="st0" d="M34.8,73H20c-6.6,0-12-5.4-12-12V46.2c0-6.6,5.4-12,12-12h14.8c6.6,0,12,5.4,12,12V61
	C46.8,67.6,41.4,73,34.8,73z"/>
<path id="XMLID_1_" class="st0" d="M73.7,73H58.9c-6.6,0-12-5.4-12-12V46.2c0-6.6,5.4-12,12-12h14.8c6.6,0,12,5.4,12,12V61
	C85.7,67.6,80.3,73,73.7,73z"/>
<path id="XMLID_4_" class="st0" d="M34.8,111.8H20c-6.6,0-12-5.4-12-12V85c0-6.6,5.4-12,12-12h14.8c6.6,0,12,5.4,12,12v14.8
	C46.8,106.4,41.4,111.8,34.8,111.8z"/>
<path id="XMLID_2_" class="st0" d="M73.7,111.8H58.9c-6.6,0-12-5.4-12-12V85c0-6.6,5.4-12,12-12h14.8c6.6,0,12,5.4,12,12v14.8
	C85.7,106.4,80.3,111.8,73.7,111.8z"/>
<path id="XMLID_12_" class="st0" d="M34.8,150.6H20c-6.6,0-12-5.4-12-12v-14.8c0-6.6,5.4-12,12-12h14.8c6.6,0,12,5.4,12,12v14.8
	C46.8,145.2,41.4,150.6,34.8,150.6z"/>
<path id="XMLID_11_" class="st0" d="M73.6,150.6H58.8c-6.6,0-12-5.4-12-12v-14.8c0-6.6,5.4-12,12-12h14.8c6.6,0,12,5.4,12,12v14.8
	C85.6,145.2,80.2,150.6,73.6,150.6z"/>
<rect id="XMLID_15_" x="90.7" y="63.5" class="st1" width="42.7" height="51.2"/>
<text id="XMLID_16_" transform="matrix(1 0 0 1 90.6673 96.8594)" class="st2 st3 st4">&gt;</text>
<rect id="XMLID_17_" x="121.5" y="67.3" class="st1" width="96" height="63.3"/>
<text id="XMLID_18_" transform="matrix(1 0 0 1 121.5 100.6924)" class="st2 st3 st4">30</text>
<rect id="XMLID_13_" x="91.4" y="55" class="st1" width="41.2" height="55.5"/>
<text id="XMLID_14_" transform="matrix(1 0 0 1 91.416 88.3597)" class="st2 st3 st4">_</text>
</svg>
