<?xml version="1.0" encoding="utf-8"?>
<!-- Generator: Adobe Illustrator 19.0.0, SVG Export Plug-In . SVG Version: 6.00 Build 0)  -->
<svg version="1.1" xmlns="http://www.w3.org/2000/svg" xmlns:xlink="http://www.w3.org/1999/xlink" x="0px" y="0px"
	 viewBox="0 0 200 200" style="enable-background:new 0 0 200 200;" xml:space="preserve">
<style type="text/css">
	.st0{fill:#FFFFFF;stroke:#000000;stroke-miterlimit:10;}
	.st1{fill:none;}
	.st2{font-family:'TimesNewRomanPSMT';}
	.st3{font-size:50.0038px;}
</style>
<g id="a1">
	<path id="XMLID_17_" class="st0" d="M61.5,90.4H32.9c-6.6,0-12-5.4-12-12V49.7c0-6.6,5.4-12,12-12h28.7c6.6,0,12,5.4,12,12v28.7
		C73.5,85,68.1,90.4,61.5,90.4z"/>
	<rect id="XMLID_11_" x="18.1" y="44.1" class="st1" width="53.7" height="47.3"/>
	<text id="XMLID_12_" transform="matrix(1 0 0 1 26.9028 78.8794)" class="st2 st3">A</text>
	<path id="XMLID_2_" class="st0" d="M114.3,90.2H85.6c-6.6,0-12-5.4-12-12V49.5c0-6.6,5.4-12,12-12h28.7c6.6,0,12,5.4,12,12v28.7
		C126.3,84.8,120.9,90.2,114.3,90.2z"/>
	<rect id="XMLID_16_" x="70.9" y="43.9" class="st1" width="53.7" height="47.3"/>
	<text id="XMLID_1_" transform="matrix(1 0 0 1 79.6387 78.6772)" class="st2 st3">A</text>
	<path id="XMLID_6_" class="st0" d="M167.2,90.5h-28.7c-6.6,0-12-5.4-12-12V49.8c0-6.6,5.4-12,12-12h28.7c6.6,0,12,5.4,12,12v28.7
		C179.2,85.1,173.8,90.5,167.2,90.5z"/>
	<rect id="XMLID_4_" x="123.8" y="44.3" class="st1" width="53.7" height="47.3"/>
	<text id="XMLID_3_" transform="matrix(1 0 0 1 132.5596 79.019)" class="st2 st3">A</text>
	<path id="XMLID_18_" class="st0" d="M91.4,152.7H62.7c-6.6,0-12-5.4-12-12V112c0-6.6,5.4-12,12-12h28.7c6.6,0,12,5.4,12,12v28.7
		C103.4,147.3,98,152.7,91.4,152.7z"/>
	<rect id="XMLID_23_" x="48" y="106.4" class="st1" width="53.7" height="47.3"/>
	<text id="XMLID_15_" transform="matrix(1 0 0 1 58.1746 141.1766)" class="st2 st3">B</text>
	<path id="XMLID_14_" class="st0" d="M144.1,152.5h-28.7c-6.6,0-12-5.4-12-12v-28.7c0-6.6,5.4-12,12-12h28.7c6.6,0,12,5.4,12,12
		v28.7C156.1,147.1,150.7,152.5,144.1,152.5z"/>
	<rect id="XMLID_19_" x="100.7" y="106.2" class="st1" width="53.7" height="47.3"/>
	<text id="XMLID_13_" transform="matrix(1 0 0 1 110.9095 140.9744)" class="st2 st3">B</text>
</g>
<g id="Layer_2">
</g>
</svg>
