<?xml version="1.0" encoding="utf-8"?>
<!-- Generator: Adobe Illustrator 19.0.0, SVG Export Plug-In . SVG Version: 6.00 Build 0)  -->
<svg version="1.1" xmlns="http://www.w3.org/2000/svg" xmlns:xlink="http://www.w3.org/1999/xlink" x="0px" y="0px"
	 viewBox="0 0 200 200" style="enable-background:new 0 0 200 200;" xml:space="preserve">
<style type="text/css">
	.st0{fill:#FFFFFF;stroke:#000000;stroke-miterlimit:10;}
	.st1{fill:none;}
	.st2{font-family:'TimesNewRomanPSMT';}
	.st3{font-size:55.8415px;}
</style>
<g id="a1">
	<path id="XMLID_17_" class="st0" d="M85.9,65.8H51.1c-6.6,0-12-5.4-12-12V19c0-6.6,5.4-12,12-12h34.8c6.6,0,12,5.4,12,12v34.8
		C97.9,60.4,92.5,65.8,85.9,65.8z"/>
	<path id="XMLID_18_" class="st0" d="M148.5,65.8h-34.8c-6.6,0-12-5.4-12-12V19c0-6.6,5.4-12,12-12h34.8c6.6,0,12,5.4,12,12v34.8
		C160.5,60.4,155.1,65.8,148.5,65.8z"/>
	<path id="XMLID_19_" class="st0" d="M148,127.4h-34.8c-6.6,0-12-5.4-12-12V80.6c0-6.6,5.4-12,12-12H148c6.6,0,12,5.4,12,12v34.8
		C160,122,154.6,127.4,148,127.4z"/>
	<path id="XMLID_20_" class="st0" d="M85.7,127.6H50.8c-6.6,0-12-5.4-12-12V80.8c0-6.6,5.4-12,12-12h34.8c6.6,0,12,5.4,12,12v34.8
		C97.7,122.2,92.3,127.6,85.7,127.6z"/>
	<rect id="XMLID_11_" x="36.1" y="14.2" class="st1" width="59.9" height="52.8"/>
	<text id="XMLID_12_" transform="matrix(1 0 0 1 45.8804 52.9839)" class="st2 st3">A</text>
	<rect id="XMLID_16_" x="98.8" y="14.2" class="st1" width="59.9" height="52.8"/>
	<text id="XMLID_9_" transform="matrix(1 0 0 1 108.6193 52.9839)" class="st2 st3">A</text>
	<rect id="XMLID_13_" x="37.7" y="78.7" class="st1" width="59.9" height="52.8"/>
	<text id="XMLID_10_" transform="matrix(1 0 0 1 49.0041 117.5196)" class="st2 st3">B</text>
	<rect id="XMLID_15_" x="100.1" y="77.2" class="st1" width="59.9" height="52.8"/>
	<text id="XMLID_14_" transform="matrix(1 0 0 1 111.4338 115.9679)" class="st2 st3">B</text>
	<path id="XMLID_26_" class="st0" d="M148.6,189.4h-34.8c-6.6,0-12-5.4-12-12v-34.8c0-6.6,5.4-12,12-12h34.8c6.6,0,12,5.4,12,12
		v34.8C160.6,184,155.2,189.4,148.6,189.4z"/>
	<path id="XMLID_24_" class="st0" d="M86.3,189.6H51.5c-6.6,0-12-5.4-12-12v-34.8c0-6.6,5.4-12,12-12h34.8c6.6,0,12,5.4,12,12v34.8
		C98.3,184.2,92.9,189.6,86.3,189.6z"/>
	<rect id="XMLID_25_" x="38.3" y="140.7" class="st1" width="59.9" height="52.8"/>
	<text id="XMLID_22_" transform="matrix(1 0 0 1 49.6625 179.5196)" class="st2 st3">C</text>
	<rect id="XMLID_23_" x="100.7" y="139.2" class="st1" width="59.9" height="52.8"/>
	<text id="XMLID_21_" transform="matrix(1 0 0 1 112.0922 177.9679)" class="st2 st3">C</text>
</g>
<g id="Layer_2">
</g>
</svg>
