<?xml version="1.0" encoding="utf-8"?>
<!-- Generator: Adobe Illustrator 19.0.0, SVG Export Plug-In . SVG Version: 6.00 Build 0)  -->
<svg version="1.1" xmlns="http://www.w3.org/2000/svg" xmlns:xlink="http://www.w3.org/1999/xlink" x="0px" y="0px"
	 viewBox="0 0 200 200" style="enable-background:new 0 0 200 200;" xml:space="preserve">
<style type="text/css">
	.st0{fill:#FFFFFF;stroke:#000000;stroke-miterlimit:10;}
	.st1{fill:none;}
	.st2{font-family:'TimesNewRomanPSMT';}
	.st3{font-size:45.2189px;}
</style>
<g id="a1">
	<path id="XMLID_17_" class="st0" d="M41.4,117.3H17.8c-6.6,0-12-5.4-12-12V81.7c0-6.6,5.4-12,12-12h23.6c6.6,0,12,5.4,12,12v23.6
		C53.4,111.9,48,117.3,41.4,117.3z"/>
	<rect id="XMLID_11_" x="3.3" y="75.5" class="st1" width="48.5" height="42.7"/>
	<text id="XMLID_12_" transform="matrix(1 0 0 1 11.2295 106.9014)" class="st2 st3">A</text>
	<path id="XMLID_2_" class="st0" d="M89.1,117.1H65.4c-6.6,0-12-5.4-12-12V81.5c0-6.6,5.4-12,12-12h23.6c6.6,0,12,5.4,12,12v23.6
		C101.1,111.7,95.7,117.1,89.1,117.1z"/>
	<rect id="XMLID_16_" x="51" y="75.3" class="st1" width="48.5" height="42.7"/>
	<text id="XMLID_1_" transform="matrix(1 0 0 1 60.1665 106.7198)" class="st2 st3">B</text>
	<path id="XMLID_6_" class="st0" d="M136.9,117.4h-23.6c-6.6,0-12-5.4-12-12V81.8c0-6.6,5.4-12,12-12h23.6c6.6,0,12,5.4,12,12v23.6
		C148.9,112,143.5,117.4,136.9,117.4z"/>
	<rect id="XMLID_4_" x="98.8" y="75.6" class="st1" width="48.5" height="42.7"/>
	<text id="XMLID_3_" transform="matrix(1 0 0 1 108.0225 107.0284)" class="st2 st3">C</text>
	<path id="XMLID_9_" class="st0" d="M184.5,117h-23.6c-6.6,0-12-5.4-12-12V81.3c0-6.6,5.4-12,12-12h23.6c6.6,0,12,5.4,12,12V105
		C196.5,111.6,191.1,117,184.5,117z"/>
	<rect id="XMLID_8_" x="146.4" y="75.1" class="st1" width="48.5" height="42.7"/>
	<text id="XMLID_7_" transform="matrix(1 0 0 1 154.378 106.5708)" class="st2 st3">D</text>
</g>
<g id="Layer_2">
</g>
</svg>
